<?xml version="1.0" encoding="UTF-8" standalone="no"?>
<svg width="400" height="400" viewBox="0 0 400 400" fill="none" xmlns="http://www.w3.org/2000/svg">
  <defs>
    <filter id="shadow" x="-10%" y="-10%" width="120%" height="120%">
      <feDropShadow dx="3" dy="3" stdDeviation="3" flood-color="#000000" flood-opacity="0.15"/>
    </filter>
  </defs>

  <!-- Shopping Bag -->
  <g filter="url(#shadow)" transform="translate(70, 50) scale(1.2)">
    <!-- Speed Lines -->
    <path d="M0 70h40" stroke="#1a237e" stroke-width="8" stroke-linecap="round"/>
    <path d="M0 90h30" stroke="#1a237e" stroke-width="8" stroke-linecap="round"/>
    <path d="M0 110h20" stroke="#1a237e" stroke-width="8" stroke-linecap="round"/>

    <!-- Bag -->
    <path d="M40 40h160v160c0 11-9 20-20 20h-120c-11 0-20-9-20-20v-160z" fill="#ffd600"/>
    <path d="M80 40v-20c0-11 9-20 20-20h40c11 0 20 9 20 20v20" stroke="#1a237e" stroke-width="12" fill="none" stroke-linecap="round"/>
    
    <!-- Smile -->
    <path d="M90 100q40 40 80 0" stroke="#1a237e" stroke-width="8" stroke-linecap="round" fill="none"/>
    
    <!-- Eyes -->
    <circle cx="100" cy="80" r="8" fill="#1a237e"/>
    <circle cx="160" cy="80" r="8" fill="#1a237e"/>
  </g>

  <!-- Daas Text -->
  <g transform="translate(65, 320)">
    <text x="135" y="0" font-family="Arial Black, sans-serif" font-size="64" font-weight="900" fill="#1a237e" text-anchor="middle">Daas</text>
    <text x="135" y="40" font-family="Arial, sans-serif" font-size="30" font-weight="bold" fill="#1a237e" text-anchor="middle">ONLINE SHOPPING</text> 
  </g>
</svg> 